<svg xmlns="http://www.w3.org/2000/svg" version="1.1" xmlns:xlink="http://www.w3.org/1999/xlink" xmlns:svgjs="http://svgjs.dev/svgjs" width="1500" height="477" viewBox="0 0 1500 477"><g transform="matrix(1,0,0,1,-0.9090909090909918,-0.5698724667085173)"><svg viewBox="0 0 396 126" data-background-color="#ffffff" preserveAspectRatio="xMidYMid meet" height="477" width="1500" xmlns="http://www.w3.org/2000/svg" xmlns:xlink="http://www.w3.org/1999/xlink"><g id="tight-bounds" transform="matrix(1,0,0,1,0.2400000000000091,0.15053234969659002)"><svg viewBox="0 0 395.52 125.69893530060683" height="125.69893530060683" width="395.52"><g><svg viewBox="0 0 683.0926091198658 217.09145853074617" height="125.69893530060683" width="395.52"><g transform="matrix(1,0,0,1,287.5726091198658,33.907529502246376)"><svg viewBox="0 0 395.52 149.2763995262534" height="149.2763995262534" width="395.52"><g id="textblocktransform"><svg viewBox="0 0 395.52 149.2763995262534" height="149.2763995262534" width="395.52" id="textblock"><g><svg viewBox="0 0 395.52 149.2763995262534" height="149.2763995262534" width="395.52"><g transform="matrix(1,0,0,1,0,0)"><svg width="395.52" viewBox="1.7 -34 124.99 47.8" height="149.2763995262534" data-palette-color="#61777f"><g class="wordmark-text-0" data-fill-palette-color="primary" id="text-0"><path d="M9.75 0.65L9.75 0.65Q5.95 0.65 3.83-1.53 1.7-3.7 1.7-7.6L1.7-7.6Q1.7-11.15 3.25-14.05 4.8-16.95 7.43-18.68 10.05-20.4 13.2-20.4L13.2-20.4Q16.2-20.4 18-18.93 19.8-17.45 19.8-15L19.8-15Q19.8-13.05 18.6-11.4 17.4-9.75 15.4-8.78 13.4-7.8 10.95-7.8L10.95-7.8Q7.95-7.8 6.05-9.15L6.05-9.15Q6.1-6.85 7.63-5.45 9.15-4.05 11.55-4.05L11.55-4.05Q13-4.05 14.53-4.58 16.05-5.1 17.15-6L17.15-6Q17.85-6.6 18.45-6.6L18.45-6.6Q18.95-6.6 19.28-6.28 19.6-5.95 19.6-5.45L19.6-5.45Q19.6-4.35 17.7-2.55L17.7-2.55Q14.35 0.65 9.75 0.65ZM10.5-11.1L10.5-11.1Q12.3-11.1 13.5-11.85 14.7-12.6 14.7-13.75L14.7-13.75Q14.7-14.7 13.9-15.23 13.1-15.75 11.7-15.75L11.7-15.75Q9.85-15.75 8.47-14.78 7.1-13.8 6.5-12.05L6.5-12.05Q7.2-11.6 8.3-11.35 9.4-11.1 10.5-11.1Z" fill="#61777f" data-fill-palette-color="primary"></path><path d="M42.8 0.65L42.8 0.65Q40.95 0.65 39.35 0.1 37.75-0.45 36.75-1.45 35.75-2.45 35.75-3.85L35.75-3.85Q35.75-4.6 36.12-5.28 36.5-5.95 37.35-5.95L37.35-5.95Q37.8-5.95 38.3-5.7L38.3-5.7Q39.2-5.2 40.6-4.78 42-4.35 43.55-4.35L43.55-4.35Q45.3-4.35 46.65-4.85 48-5.35 48-6.25L48-6.25Q48-6.95 46.97-7.25 45.95-7.55 43.55-7.9L43.55-7.9Q41.9-8.2 40.35-8.6 38.8-9 37.8-9.98 36.8-10.95 36.8-12.85L36.8-12.85Q36.8-14.7 37.82-16.43 38.85-18.15 40.9-19.3 42.95-20.45 45.9-20.45L45.9-20.45Q47.45-20.45 48.9-20.1 50.35-19.75 51.3-19.05 52.25-18.35 52.25-17.3L52.25-17.3Q52.25-16.4 51.62-15.65 51-14.9 50.17-14.43 49.35-13.95 48.8-13.95L48.8-13.95Q48.4-13.95 47.85-14.5L47.85-14.5Q47-15.2 45.97-15.48 44.95-15.75 43.95-15.75L43.95-15.75Q42.45-15.75 41.52-15.3 40.6-14.85 40.6-14.15L40.6-14.15Q40.6-13.5 41.37-13.1 42.15-12.7 43.3-12.53 44.45-12.35 45.5-12.2L45.5-12.2Q48.4-11.8 50.1-10.83 51.8-9.85 51.8-7.4L51.8-7.4Q51.8-5.5 50.72-3.63 49.65-1.75 47.62-0.55 45.6 0.65 42.8 0.65ZM58.15 0.55L58.15 0.55Q57.45 0.55 56.95 0.23 56.45-0.1 56.55-0.65L56.55-0.65Q57.3-4.65 57.82-8.78 58.35-12.9 58.35-17.1L58.35-17.1Q58.35-20.8 58.1-23.8 57.85-26.8 56.5-29.55L56.5-29.55Q56.25-30.1 56.1-30.5 55.95-30.9 55.95-31.25L55.95-31.25Q55.95-32.2 57.07-33.1 58.2-34 59.45-34L59.45-34Q61.2-34 61.85-31.8 62.5-29.6 62.5-25.3L62.5-25.3Q62.5-20.15 61.9-16.32 61.3-12.5 60.85-10.5L60.85-10.5 61.05-10.4Q62.05-13.05 63.47-15.35 64.9-17.65 66.8-19.05 68.7-20.45 71.2-20.45L71.2-20.45Q73.85-20.45 75.22-18.85 76.6-17.25 76.6-14.9L76.6-14.9Q76.6-13.9 76.4-12.98 76.2-12.05 75.95-11.2L75.95-11.2Q75.7-10.4 75.5-9.58 75.3-8.75 75.3-7.9L75.3-7.9Q75.3-6.35 76.05-5.38 76.8-4.4 78.05-4L78.05-4Q78.4-3.9 78.57-3.73 78.75-3.55 78.75-3.1L78.75-3.1Q78.75-2.65 78.45-1.8 78.15-0.95 77.35-0.23 76.55 0.5 75 0.5L75 0.5Q73 0.5 71.89-0.93 70.8-2.35 70.8-4.6L70.8-4.6Q70.8-5.7 71.02-6.85 71.25-8 71.55-9.05L71.55-9.05Q71.8-10.1 72-11.03 72.2-11.95 72.2-12.6L72.2-12.6Q72.2-14.9 69.8-14.9L69.8-14.9Q67.8-14.9 66.27-13.48 64.75-12.05 63.67-9.88 62.6-7.7 61.9-5.4L61.9-5.4 61.9-3.7Q61.9-1.85 60.82-0.65 59.75 0.55 58.15 0.55ZM89.84 0.65L89.84 0.65Q86.39 0.65 84.32-1.23 82.24-3.1 82.24-6.75L82.24-6.75Q82.24-8.45 82.72-10.05 83.19-11.65 83.99-13.05L83.99-13.05Q83.19-12.55 82.79-12.55L82.79-12.55Q82.19-12.55 81.97-13.23 81.74-13.9 81.74-14.55L81.74-14.55Q81.74-15.7 82.22-16.38 82.69-17.05 83.14-17.4L83.14-17.4Q84.19-18.3 86.44-19.38 88.69-20.45 91.84-20.45L91.84-20.45Q96.14-20.45 98.52-18.05 100.89-15.65 100.89-11.35L100.89-11.35Q100.89-8 99.49-5.28 98.09-2.55 95.62-0.95 93.14 0.65 89.84 0.65ZM91.39-4.45L91.39-4.45Q93.89-4.45 95.62-6.03 97.34-7.6 97.34-10.2L97.34-10.2Q97.34-12.9 95.59-14.05 93.84-15.2 91.54-15.2L91.54-15.2Q90.49-15.2 89.64-15 88.79-14.8 88.04-14.5L88.04-14.5Q87.34-13.5 86.79-12.25 86.24-11 86.24-9.5L86.24-9.5Q86.24-7 87.74-5.73 89.24-4.45 91.39-4.45ZM107.89 13.8L107.89 13.8Q106.39 13.8 105.54 12.98 104.69 12.15 104.69 10L104.69 10Q104.69 8.55 105.02 6.35 105.34 4.15 105.79 1.7L105.79 1.7Q106.14-0.25 106.47-2.4 106.79-4.55 107.02-6.63 107.24-8.7 107.24-10.35L107.24-10.35Q107.24-12.25 106.82-13.65 106.39-15.05 105.09-15.45L105.09-15.45Q104.59-15.65 104.19-15.9 103.79-16.15 103.79-16.7L103.79-16.7Q103.79-17.4 104.34-18.25 104.89-19.1 105.92-19.73 106.94-20.35 108.24-20.35L108.24-20.35Q109.94-20.35 110.59-19.18 111.24-18 111.24-16.1L111.24-16.1Q111.24-15.55 111.19-14.98 111.14-14.4 111.04-13.8L111.04-13.8Q112.49-16.6 114.87-18.53 117.24-20.45 120.24-20.45L120.24-20.45Q123.24-20.45 124.97-18.43 126.69-16.4 126.69-12.95L126.69-12.95Q126.69-10.4 125.89-7.98 125.09-5.55 123.64-3.6 122.19-1.65 120.17-0.5 118.14 0.65 115.64 0.65L115.64 0.65Q113.84 0.65 112.49 0.03 111.14-0.6 110.14-1.6L110.14-1.6Q109.94-0.3 109.77 1.55 109.59 3.4 109.59 5L109.59 5Q109.59 6.85 110.02 7.9 110.44 8.95 111.69 9.5L111.69 9.5Q112.24 9.75 112.24 10.3L112.24 10.3Q112.24 10.7 111.84 11.55 111.44 12.4 110.52 13.1 109.59 13.8 107.89 13.8ZM116.79-4.75L116.79-4.75Q119.64-4.75 121.19-6.55 122.74-8.35 122.74-10.7L122.74-10.7Q122.74-12.75 121.64-13.88 120.54-15 118.69-15L118.69-15Q116.79-15 115.34-13.88 113.89-12.75 112.87-10.95 111.84-9.15 111.19-7.1L111.19-7.1Q113.69-4.75 116.79-4.75Z" fill="#61777f" data-fill-palette-color="primary"></path></g></svg></g></svg></g></svg></g></svg></g><g><svg viewBox="0 0 217.09145853074617 217.09145853074617" height="217.09145853074617" width="217.09145853074617"><g><svg></svg></g><g id="icon-0"><svg viewBox="0 0 217.09145853074617 217.09145853074617" height="217.09145853074617" width="217.09145853074617"><g><path d="M0 108.546c0-59.948 48.598-108.546 108.546-108.546 59.948 0 108.546 48.598 108.545 108.546 0 59.948-48.598 108.546-108.545 108.545-59.948 0-108.546-48.598-108.546-108.545zM108.546 203.63c52.513 0 95.084-42.57 95.084-95.084 0-52.513-42.57-95.084-95.084-95.084-52.513 0-95.084 42.57-95.084 95.084 0 52.513 42.57 95.084 95.084 95.084z" data-fill-palette-color="accent" fill="#61777f" stroke="transparent"></path></g><g transform="matrix(1,0,0,1,55.128373630556375,62.624476160766655)"><svg viewBox="0 0 106.83471126963342 91.84250620921286" height="91.84250620921286" width="106.83471126963342"><g><svg xmlns="http://www.w3.org/2000/svg" xmlns:xlink="http://www.w3.org/1999/xlink" version="1.1" x="0" y="0" viewBox="27.402999999999984 30.544935263270204 45.264 38.91206473672979" enable-background="new 0 0 100 100" xml:space="preserve" height="91.84250620921286" width="106.83471126963342" class="icon-cg-0" data-fill-palette-color="accent" id="cg-0"><path d="M72.589 39.772c-0.014-0.029-0.034-0.05-0.052-0.077-0.044-0.066-0.095-0.125-0.158-0.176-0.016-0.013-0.022-0.032-0.039-0.043-0.019-0.012-0.041-0.011-0.061-0.022-0.027-0.016-0.048-0.04-0.078-0.052l-21.809-8.806c-0.105-0.042-0.213-0.055-0.318-0.05-0.105-0.005-0.212 0.007-0.316 0.049l-21.883 8.806c-0.03 0.012-0.051 0.036-0.079 0.052-0.02 0.011-0.043 0.01-0.062 0.022-0.017 0.011-0.024 0.031-0.04 0.044-0.062 0.05-0.113 0.108-0.156 0.173-0.018 0.027-0.04 0.05-0.054 0.08-0.049 0.1-0.079 0.207-0.08 0.319 0 0.002-0.001 0.003-0.001 0.005V59.9c0 0.306 0.186 0.581 0.47 0.695l21.883 8.807c0.009 0.004 0.019 0.002 0.027 0.005 0.082 0.03 0.166 0.05 0.252 0.05 0.094 0 0.186-0.024 0.274-0.06 0.012-0.005 0.025-0.003 0.037-0.008l21.883-9.979c0.267-0.122 0.438-0.389 0.438-0.683V40.098c0-0.002-0.001-0.003-0.001-0.005C72.668 39.98 72.638 39.872 72.589 39.772zM50.038 48.095L41.1 44.499l19.841-8.025 8.973 3.623L50.038 48.095zM50.074 32.085l8.865 3.58-19.845 8.026-8.931-3.594L50.074 32.085zM28.905 41.208l20.383 8.202v18.187l-20.383-8.203V41.208zM71.17 58.246l-20.382 9.295V49.41l20.382-8.202V58.246z" fill="#61777f" data-fill-palette-color="accent"></path></svg></g></svg></g></svg></g></svg></g></svg></g><defs></defs></svg><rect width="395.52" height="125.69893530060683" fill="none" stroke="none" visibility="hidden"></rect></g></svg></g></svg>